<?xml version="1.0" encoding="UTF-8"?>
<svg xmlns="http://www.w3.org/2000/svg" xmlns:xlink="http://www.w3.org/1999/xlink" width="35pt" height="36pt" viewBox="0 0 35 36" version="1.1">
<g id="surface1">
<path style=" stroke:none;fill-rule:nonzero;fill:rgb(0%,0%,0%);fill-opacity:1;" d="M 5.882812 35.769531 C 4.445312 35.449219 3.457031 34.925781 2.410156 33.953125 C 1.394531 33.007812 0.710938 31.878906 0.335938 30.46875 C 0.101562 29.640625 0.0742188 28.800781 0.0742188 22.863281 C 0.0742188 17.695312 0.117188 16.011719 0.277344 15.386719 C 0.972656 12.542969 2.960938 10.554688 5.808594 9.855469 C 6.433594 9.695312 8.117188 9.652344 13.289062 9.652344 C 20.59375 9.652344 20.839844 9.683594 22.570312 10.554688 C 23.554688 11.046875 24.992188 12.46875 25.429688 13.355469 C 25.71875 13.964844 25.851562 14.082031 26.285156 14.152344 C 27.519531 14.371094 29.148438 14.851562 30.019531 15.242188 C 31.992188 16.140625 33.75 17.710938 34.519531 19.277344 C 34.898438 20.03125 34.925781 20.234375 34.925781 21.773438 C 34.925781 23.328125 34.898438 23.5 34.507812 24.316406 C 34.230469 24.878906 33.691406 25.5625 32.96875 26.289062 C 31.628906 27.625 29.886719 28.554688 27.753906 29.089844 L 26.386719 29.425781 L 26.125 30.453125 C 25.488281 32.964844 23.976562 34.621094 21.480469 35.535156 L 20.40625 35.925781 L 13.652344 35.957031 C 8.058594 35.984375 6.722656 35.941406 5.882812 35.769531 Z M 20.460938 33.183594 C 22.207031 32.617188 23.136719 31.675781 23.628906 29.933594 C 23.816406 29.265625 23.875 28.117188 23.917969 23.851562 C 24.019531 16.390625 23.804688 14.9375 22.4375 13.601562 C 21.058594 12.265625 20.332031 12.164062 12.636719 12.222656 C 6.550781 12.265625 6.449219 12.28125 5.605469 12.613281 C 4.457031 13.078125 3.472656 14.050781 3.035156 15.167969 C 2.6875 16.027344 2.6875 16.113281 2.644531 22.339844 C 2.597656 27.710938 2.628906 28.800781 2.832031 29.699219 C 3.3125 31.878906 4.734375 33.082031 7.144531 33.371094 C 7.726562 33.445312 10.789062 33.488281 13.941406 33.472656 C 18.921875 33.429688 19.78125 33.402344 20.460938 33.183594 Z M 27.535156 26.695312 C 29.003906 26.246094 30.207031 25.519531 31.136719 24.53125 C 32.457031 23.09375 32.707031 21.644531 31.890625 20.074219 C 31.136719 18.59375 29.074219 17.171875 27.042969 16.707031 L 26.429688 16.578125 L 26.429688 21.789062 C 26.429688 24.648438 26.460938 27 26.488281 27 C 26.519531 27 26.996094 26.871094 27.535156 26.695312 Z M 27.535156 26.695312 "/>
<path style=" stroke:none;fill-rule:nonzero;fill:rgb(0%,0%,0%);fill-opacity:1;" d="M 19.375 17.144531 C 18.488281 16.605469 18.371094 15.359375 19.140625 14.617188 C 20.257812 13.558594 21.929688 14.3125 21.929688 15.878906 C 21.929688 16.316406 21.828125 16.535156 21.4375 16.925781 C 20.855469 17.507812 20.097656 17.59375 19.375 17.144531 Z M 19.375 17.144531 "/>
<path style=" stroke:none;fill-rule:nonzero;fill:rgb(0%,0%,0%);fill-opacity:1;" d="M 9.382812 7.476562 C 8.511719 6.546875 8.511719 4.644531 9.367188 3.484375 C 9.804688 2.902344 9.859375 1.828125 9.496094 1.148438 C 9.382812 0.898438 9.292969 0.566406 9.324219 0.390625 C 9.351562 0.128906 9.46875 0.0742188 9.875 0.0742188 C 10.324219 0.0742188 10.414062 0.144531 10.71875 0.726562 C 10.992188 1.261719 11.050781 1.554688 11.007812 2.394531 C 10.964844 3.265625 10.890625 3.527344 10.484375 4.121094 C 9.933594 4.980469 9.875 5.75 10.3125 6.5625 C 10.617188 7.140625 10.574219 7.476562 10.152344 7.695312 C 9.789062 7.898438 9.757812 7.882812 9.382812 7.476562 Z M 9.382812 7.476562 "/>
<path style=" stroke:none;fill-rule:nonzero;fill:rgb(0%,0%,0%);fill-opacity:1;" d="M 12.824219 7.621094 C 12.328125 7.273438 12.011719 6.242188 12.082031 5.195312 C 12.125 4.484375 12.242188 4.121094 12.605469 3.570312 C 13.15625 2.714844 13.214844 1.929688 12.78125 1.117188 C 12.386719 0.390625 12.578125 -0.0429688 13.246094 0.0273438 C 13.59375 0.0585938 13.753906 0.1875 13.972656 0.609375 C 14.550781 1.726562 14.480469 3.0625 13.796875 4.09375 C 13.304688 4.804688 13.214844 5.894531 13.578125 6.53125 C 13.871094 7.039062 13.839844 7.519531 13.519531 7.695312 C 13.15625 7.882812 13.203125 7.882812 12.824219 7.621094 Z M 12.824219 7.621094 "/>
<path style=" stroke:none;fill-rule:nonzero;fill:rgb(0%,0%,0%);fill-opacity:1;" d="M 15.988281 7.492188 C 15.523438 6.996094 15.21875 5.878906 15.320312 5.050781 C 15.378906 4.675781 15.613281 4.066406 15.859375 3.671875 C 16.46875 2.730469 16.527344 2.074219 16.121094 1.21875 C 15.742188 0.449219 15.828125 0.101562 16.441406 0.0273438 C 17.164062 -0.0585938 17.835938 1.351562 17.660156 2.582031 C 17.617188 2.917969 17.339844 3.628906 17.0625 4.167969 C 16.484375 5.269531 16.441406 5.660156 16.847656 6.460938 C 17.195312 7.140625 17.210938 7.316406 16.90625 7.605469 C 16.597656 7.925781 16.367188 7.898438 15.988281 7.492188 Z M 15.988281 7.492188 "/>
</g>
</svg>
